<?xml version="1.0" standalone="no"?><!DOCTYPE svg PUBLIC "-//W3C//DTD SVG 1.1//EN" "http://www.w3.org/Graphics/SVG/1.1/DTD/svg11.dtd"><svg t="1537081161977" class="icon" style="" viewBox="0 0 1024 1024" version="1.1" xmlns="http://www.w3.org/2000/svg" p-id="604" xmlns:xlink="http://www.w3.org/1999/xlink" width="48" height="48"><defs><style type="text/css"></style></defs><path d="M875.245268 1024H174.129951c-46.254829 0-83.818146-37.66322-83.818146-83.818146V92.809366C90.311805 46.654439 127.875122 8.99122 174.129951 8.99122h701.21522c46.254829 0 83.818146 37.66322 83.818146 83.818146V940.081951c-0.099902 46.254829-37.66322 83.918049-83.918049 83.918049zM174.129951 48.952195c-24.17639 0-43.857171 19.68078-43.857171 43.857171V940.081951c0 24.17639 19.68078 43.857171 43.857171 43.857171h701.21522c24.17639 0 43.857171-19.68078 43.85717-43.857171V92.809366c0-24.17639-19.68078-43.857171-43.85717-43.857171H174.129951z" fill="" p-id="605"></path><path d="M402.20722 427.382634H277.928585v-33.067707h41.459513V266.939317l-42.658342 9.590634v-34.066731l84.217756-17.782635v169.534439H402.107317v33.16761z m0 0" fill="" p-id="606"></path><path d="M405.504 430.679415h-130.872195v-39.661269h41.459512V271.035317l-42.658341 9.590634v-40.96l90.811317-19.181268v170.333658h41.159805v39.861074zM281.225366 424.185756h117.685073V397.611707h-41.159805V228.776585l-77.624195 16.284098v27.273366l42.658341-9.590634v134.76839H281.225366v26.673951z m166.037854-93.009171c0-34.466341 6.293854-60.840585 19.081365-79.022829 12.587707-18.182244 31.069659-27.273366 55.046244-27.273366 45.85522 0 68.632976 33.866927 68.632976 101.500878 0 33.267512-6.193951 59.142244-18.681756 77.124683-12.387902 18.182244-30.370341 27.273366-53.847415 27.273366-46.954146 0.199805-70.231415-33.067707-70.231414-99.602732z m41.959024-0.999024c0 45.955122 9.890341 68.83278 29.471219 68.83278 19.181268 0 28.971707-23.676878 28.971708-70.930731 0-47.553561-9.390829-71.230439-28.172488-71.230439-20.280195 0-30.270439 24.476098-30.270439 73.32839z m0 0" fill="" p-id="607"></path><path d="M517.095024 434.176c-19.980488 0-36.164683-6.094049-48.053073-17.782634-16.683707-16.583805-25.175415-45.255805-25.175414-85.216781 0-34.965854 6.593561-62.23922 19.780683-80.821073 13.187122-18.981463 32.668098-28.672 57.643707-28.672 47.653463 0 71.929756 35.265561 71.929756 104.797659 0 33.966829-6.493659 60.540878-19.181268 79.022829-12.887415 18.981463-31.96878 28.672-56.644683 28.672h-0.299708z m4.295805-205.898927c-22.777756 0-40.460488 8.691512-52.248975 25.774829-12.288 17.482927-18.581854 43.457561-18.581854 77.124683 0 38.062829 7.79239 65.036488 23.177366 80.421464 10.489756 10.489756 25.175415 15.884488 43.457561 15.884488h0.299707c22.278244 0 39.461463-8.691512 51.050146-25.77483 11.988293-17.383024 18.182244-42.658341 18.182244-75.326439-0.099902-66.035512-21.379122-98.104195-65.336195-98.104195z m-2.697366 174.030049c-21.678829 0-32.768-24.17639-32.768-72.129561 0-51.649561 10.889366-76.625171 33.56722-76.625171 21.179317 0 31.469268 24.376195 31.469268 74.52722 0 49.152-10.789463 74.227512-32.268488 74.227512z m0.79922-142.161171c-17.882537 0-26.973659 23.576976-26.973659 70.03161 0 43.457561 8.791415 65.536 26.174439 65.536 16.983415 0 25.674927-22.777756 25.674927-67.633951 0-45.056-8.391805-67.933659-24.875707-67.933659z m0 0M630.084683 331.176585c0-34.466341 6.293854-60.840585 19.081366-79.022829 12.587707-18.182244 31.069659-27.273366 55.046244-27.273366 45.85522 0 68.632976 33.866927 68.632975 101.500878 0 33.267512-6.193951 59.142244-18.681756 77.124683-12.387902 18.182244-30.370341 27.273366-53.847414 27.273366-46.754341 0.199805-70.231415-33.067707-70.231415-99.602732z m41.959024-0.999024c0 45.955122 9.890341 68.83278 29.47122 68.83278 19.181268 0 28.971707-23.676878 28.971707-70.930731 0-47.553561-9.390829-71.230439-28.172488-71.230439-20.08039 0-30.270439 24.476098-30.270439 73.32839z m0 0" fill="" p-id="608"></path><path d="M700.01639 434.176c-19.980488 0-36.06478-6.094049-47.95317-17.882537-16.683707-16.683707-25.175415-45.255805-25.175415-85.016975 0-34.965854 6.593561-62.23922 19.780683-80.821073 13.187122-18.981463 32.668098-28.672 57.643707-28.672 47.653463 0 71.829854 35.265561 71.829854 104.797658 0 33.966829-6.493659 60.540878-19.181269 79.022829-12.887415 18.981463-31.96878 28.672-56.644682 28.672h-0.299708z m4.195903-205.898927c-22.777756 0-40.460488 8.691512-52.248976 25.774829-12.288 17.482927-18.581854 43.457561-18.581854 77.124683 0 37.863024 7.79239 65.036488 23.277269 80.421464 10.689561 10.489756 25.175415 15.884488 43.357658 15.884488h0.299708c22.278244 0 39.461463-8.691512 51.050146-25.77483 11.988293-17.383024 18.182244-42.658341 18.182244-75.326439-0.099902-66.035512-21.379122-98.104195-65.336195-98.104195z m-2.597464 174.030049c-21.678829 0-32.768-24.17639-32.768-72.129561 0-50.850341 11.288976-76.625171 33.56722-76.625171 21.179317 0 31.469268 24.376195 31.469268 74.52722-0.099902 49.152-10.889366 74.227512-32.268488 74.227512z m0.699317-142.161171c-17.882537 0-26.973659 23.576976-26.973658 70.03161 0 43.457561 8.791415 65.536 26.174439 65.536 16.983415 0 25.674927-22.777756 25.674927-67.633951 0-45.056-8.391805-67.933659-24.875708-67.933659z m0 0M272.433951 752.964683h252.653269v54.546732H272.433951zM777.44078 570.942439H272.633756v54.546732h504.906927z" fill="" p-id="609"></path></svg>
