<?xml version="1.0" standalone="no"?><!DOCTYPE svg PUBLIC "-//W3C//DTD SVG 1.1//EN" "http://www.w3.org/Graphics/SVG/1.1/DTD/svg11.dtd"><svg t="1537084442934" class="icon" style="" viewBox="0 0 1024 1024" version="1.1" xmlns="http://www.w3.org/2000/svg" p-id="5315" xmlns:xlink="http://www.w3.org/1999/xlink" width="48" height="48"><defs><style type="text/css"></style></defs><path d="M223.198362 849.049615V560.784482h64.829711V849.049615zM359.183546 849.049615V507.820255h64.829711V849.049615zM492.299054 849.037138V446.708646h64.829711v402.328492zM625.551808 849.049615V625.264841h64.829711V849.049615zM758.667317 849.037138V495.468174h64.82971v353.568964z" p-id="5316" fill=""></path><path d="M861.800955 0H162.199045C72.98957 0 0 72.98957 0 162.199045v699.60191c0 89.209475 72.98957 162.199045 162.199045 162.199045h699.60191c89.209475 0 162.199045-72.98957 162.199045-162.199045V162.199045c0-89.209475-72.98957-162.199045-162.199045-162.199045z m97.319427 862.075446a97.381811 97.381811 0 0 1-97.094843 97.094844H161.924554A97.381811 97.381811 0 0 1 64.879618 862.075446V161.924554A97.381811 97.381811 0 0 1 161.924554 64.879618h700.150892a97.381811 97.381811 0 0 1 97.094844 97.094843z" p-id="5317" fill=""></path><path d="M255.638171 380.256945a32.339994 32.339994 0 0 1-14.81002-61.136563l135.847938-69.770543 135.560971-71.355103a32.327517 32.327517 0 0 1 38.803002 6.650161l110.869286 119.890048 109.796276-82.347207a32.339994 32.339994 0 0 1 38.803003 51.741495l-133.103032 99.814797a32.339994 32.339994 0 0 1-43.144946-3.917731l-113.838776-123.084121-113.726484 59.888878-0.286967 0.149722-135.997661 69.870358a32.165318 32.165318 0 0 1-14.77259 3.605809z" p-id="5318" fill=""></path></svg>
